<svg id="Capa_1" enable-background="new 0 0 512 512" height="512" viewBox="0 0 512 512" width="512" xmlns="http://www.w3.org/2000/svg"><path d="m416.8 161.26v189.48l-160.8 92.355-160.8-92.355v-189.48l160.8-92.355z" fill="#ffa001"/><path d="m416.8 161.26v189.48l-160.8 92.355v-374.19z" fill="#f87f02"/><path d="m416.8 161.26-160.8 92.356-160.8-92.356 160.8-92.355z" fill="#f4d34e"/><path d="m416.8 161.26-160.8 92.356v-184.711z" fill="#ffa41f"/><g fill="#514b7f"><path d="m282.574 496.492-26.574 15.508-26.573-15.508 15.127-25.923 11.446 6.673 11.446-6.673z"/><path d="m112.557 393.53-15.127 25.923 32.997 19.26 15.138-25.923zm66.004 38.519-15.128 25.923 32.997 19.26 15.128-25.923z"/><path d="m64.433 400.195-26.454-15.439v-30.628h30.016v13.393l11.567 6.751z"/><path d="m37.979 197.12v39.25h30.015v-39.25zm0 78.51v39.25h30.015v-39.25z"/><path d="m67.995 157.873h-30.016v-30.629l26.454-15.439 15.129 25.923-11.567 6.751z"/><path d="m196.43 34.768-32.997 19.26 15.128 25.923 32.997-19.26zm-66.004 38.519-32.996 19.26 15.128 25.923 32.997-19.26z"/><path d="m282.574 15.508-15.128 25.923-11.446-6.673-11.446 6.673-15.127-25.923 26.573-15.508z"/><path d="m315.57 34.768-15.128 25.923 32.997 19.26 15.128-25.923zm66.004 38.519-15.138 25.923 33.007 19.26 15.128-25.923z"/><path d="m474.021 127.245v30.625h-30.016v-13.387l-11.565-6.753 15.127-25.923z"/><path d="m444.005 197.12v39.25h30.015v-39.25zm0 78.51v39.25h30.015v-39.25z"/><path d="m474.021 354.13v30.625l-26.454 15.438-15.127-25.923 11.565-6.753v-13.387z"/><path d="m399.443 393.53-32.997 19.26 15.128 25.923 32.997-19.26zm-66.004 38.519-32.997 19.26 15.128 25.923 32.997-19.26z"/></g><path d="m267.446 470.569 15.128 25.923-26.574 15.508v-34.758z" fill="#2b2f5b"/><path d="m256 0 26.574 15.508-15.128 25.923-11.446-6.673z" fill="#2b2f5b"/><path d="m305.402 439.634h38.206v30.014h-38.206z" fill="#2b2f5b" transform="matrix(.864 -.504 .504 .864 -184.914 225.526)"/><path d="m309.498 38.256h30.014v38.206h-30.014z" fill="#2b2f5b" transform="matrix(.504 -.864 .864 .504 111.384 308.702)"/><path d="m371.405 401.114h38.206v30.014h-38.206z" fill="#2b2f5b" transform="matrix(.864 -.504 .504 .864 -156.503 253.542)"/><path d="m381.574 73.287 32.997 19.26-15.128 25.923-33.007-19.259z" fill="#2b2f5b"/><path d="m474.021 127.245v30.625h-30.016v-13.387l-11.565-6.753 15.127-25.923z" fill="#2b2f5b"/><path d="m444.005 197.12h30.015v39.25h-30.015z" fill="#2b2f5b"/><path d="m444.005 275.63h30.015v39.25h-30.015z" fill="#2b2f5b"/><path d="m444.005 354.13h30.016v30.625l-26.454 15.438-15.127-25.923 11.565-6.753z" fill="#2b2f5b"/></svg>