<svg xmlns="http://www.w3.org/2000/svg" width="17.428" height="17.428" viewBox="0 0 17.428 17.428">
  <g id="Group_3349" data-name="Group 3349" transform="translate(-1006 -2160.704)">
    <g id="restaurant-cutlery-circular-symbol-of-a-spoon-and-a-fork-in-a-circle" transform="translate(1006 2160.704)">
      <g id="Group_2952" data-name="Group 2952">
        <path id="Path_973" data-name="Path 973" d="M8.715,0a8.714,8.714,0,1,0,8.714,8.714A8.725,8.725,0,0,0,8.715,0Zm0,16.778a8.064,8.064,0,1,1,8.065-8.064A8.074,8.074,0,0,1,8.715,16.778Z" fill="#545454"/>
      </g>
    </g>
    <g id="baseline-account_balance-24px" transform="translate(1009 2163.005)">
      <path id="Path_989" data-name="Path 989" d="M0,0H12V12H0Z" fill="none"/>
      <path id="Path_990" data-name="Path 990" d="M3,5.5V9H4.5V5.5Zm3,0V9H7.5V5.5Zm-4,6h9.5V10H2Zm7-6V9h1.5V5.5ZM6.748,1,2,3.5v1h9.5v-1Z" transform="translate(-1 -0.5)" fill="#545454"/>
    </g>
  </g>
</svg>
