<svg xmlns="http://www.w3.org/2000/svg" width="17.428" height="17.428" viewBox="0 0 17.428 17.428">
  <g id="Group_3347" data-name="Group 3347" transform="translate(-1005.465 -2072.704)">
    <g id="restaurant-cutlery-circular-symbol-of-a-spoon-and-a-fork-in-a-circle" transform="translate(1005.464 2072.704)">
      <g id="Group_2952" data-name="Group 2952">
        <path id="Path_973" data-name="Path 973" d="M8.715,0a8.714,8.714,0,1,0,8.714,8.714A8.725,8.725,0,0,0,8.715,0Zm0,16.778a8.064,8.064,0,1,1,8.065-8.064A8.074,8.074,0,0,1,8.715,16.778Z" fill="#545454"/>
      </g>
    </g>
    <g id="baseline-school-24px" transform="translate(1007.661 2075.661)">
      <path id="Path_985" data-name="Path 985" d="M0,0H12.678V12.678H0Z" fill="none"/>
      <path id="Path_986" data-name="Path 986" d="M3.113,8.377V10.49l3.7,2.018,3.7-2.018V8.377L6.811,10.4ZM6.811,3,1,6.169,6.811,9.339l4.754-2.594V10.4h1.056V6.169Z" transform="translate(-0.472 -1.415)" fill="#545454"/>
    </g>
  </g>
</svg>
