<svg xmlns="http://www.w3.org/2000/svg" width="17.428" height="17.428" viewBox="0 0 17.428 17.428">
  <g id="Group_3343" data-name="Group 3343" transform="translate(-1005 -1896)">
    <g id="restaurant-cutlery-circular-symbol-of-a-spoon-and-a-fork-in-a-circle" transform="translate(1005 1896)">
      <g id="Group_2952" data-name="Group 2952">
        <path id="Path_973" data-name="Path 973" d="M8.715,0a8.714,8.714,0,1,0,8.714,8.714A8.725,8.725,0,0,0,8.715,0Zm0,16.778a8.064,8.064,0,1,1,8.065-8.064A8.074,8.074,0,0,1,8.715,16.778Z" fill="#545454"/>
      </g>
    </g>
    <g id="store" transform="translate(1008.383 1852.308)">
      <g id="Group_2955" data-name="Group 2955" transform="translate(0 48.003)">
        <g id="Group_2954" data-name="Group 2954" transform="translate(0 0)">
          <path id="Path_974" data-name="Path 974" d="M11.142,50.6,9.391,48.15A.365.365,0,0,0,9.1,48h-7a.365.365,0,0,0-.287.147L.063,50.6,0,50.79A1.4,1.4,0,0,0,1.4,52.2a1.388,1.388,0,0,0,1.05-.476,1.4,1.4,0,0,0,2.1,0,1.4,1.4,0,0,0,2.1,0,1.4,1.4,0,0,0,2.1,0A1.388,1.388,0,0,0,9.8,52.2a1.4,1.4,0,0,0,1.4-1.415Z" transform="translate(0 -48.003)" fill="#545454"/>
        </g>
      </g>
      <g id="Group_2957" data-name="Group 2957" transform="translate(0.701 52.622)">
        <g id="Group_2956" data-name="Group 2956">
          <path id="Path_975" data-name="Path 975" d="M41.106,259.358a2.1,2.1,0,0,1-1.05-.283,2.146,2.146,0,0,1-2.1,0,2.146,2.146,0,0,1-2.1,0,2.146,2.146,0,0,1-2.1,0,2.129,2.129,0,0,1-1.751.146v3.638a.7.7,0,0,0,.7.7h5.6v-3.5h2.1v3.5h.7a.7.7,0,0,0,.7-.7V259.23A2.088,2.088,0,0,1,41.106,259.358Zm-4.9,2.8H33.4v-2.1h2.8Z" transform="translate(-32.003 -259.075)" fill="#545454"/>
        </g>
      </g>
    </g>
  </g>
</svg>
