<svg xmlns="http://www.w3.org/2000/svg" width="17.428" height="17.428" viewBox="0 0 17.428 17.428">
  <g id="Group_3350" data-name="Group 3350" transform="translate(-1005.465 -2203)">
    <g id="restaurant-cutlery-circular-symbol-of-a-spoon-and-a-fork-in-a-circle" transform="translate(1005.464 2203)">
      <g id="Group_2952" data-name="Group 2952">
        <path id="Path_973" data-name="Path 973" d="M8.715,0a8.714,8.714,0,1,0,8.714,8.714A8.725,8.725,0,0,0,8.715,0Zm0,16.778a8.064,8.064,0,1,1,8.065-8.064A8.074,8.074,0,0,1,8.715,16.778Z" fill="#545454"/>
      </g>
    </g>
    <path id="Subtraction_12" data-name="Subtraction 12" d="M-8980.472,6023.076h0c-.144-.161-3.527-3.966-3.527-6.549a3.532,3.532,0,0,1,3.528-3.526,3.531,3.531,0,0,1,3.526,3.526c0,2.584-3.382,6.388-3.525,6.549Zm-.025-7.862a1.506,1.506,0,0,0-1.5,1.5,1.506,1.506,0,0,0,1.5,1.5,1.506,1.506,0,0,0,1.5-1.5A1.506,1.506,0,0,0-8980.5,6015.214Z" transform="translate(9995 -3806)" fill="#545454"/>
  </g>
</svg>
