<svg xmlns="http://www.w3.org/2000/svg" width="17.428" height="17.428" viewBox="0 0 17.428 17.428">
  <g id="Group_3345" data-name="Group 3345" transform="translate(-1005.465 -1984.704)">
    <g id="restaurant-cutlery-circular-symbol-of-a-spoon-and-a-fork-in-a-circle" transform="translate(1005.464 1984.704)">
      <g id="Group_2952" data-name="Group 2952">
        <path id="Path_973" data-name="Path 973" d="M8.715,0a8.714,8.714,0,1,0,8.714,8.714A8.725,8.725,0,0,0,8.715,0Zm0,16.778a8.064,8.064,0,1,1,8.065-8.064A8.074,8.074,0,0,1,8.715,16.778Z" fill="#545454"/>
      </g>
    </g>
    <g id="tree" transform="translate(1009 1988.48)">
      <path id="Path_979" data-name="Path 979" d="M2.363,7.655A2.524,2.524,0,0,0,4.706,5a2.888,2.888,0,0,0-.687-1.87,3.3,3.3,0,0,0,.1-.767C4.12,1.071,3.332,0,2.363,0S.586,1.071.586,2.363a3.308,3.308,0,0,0,.1.767A2.824,2.824,0,0,0,0,5,2.539,2.539,0,0,0,2.363,7.655Zm0,0" fill="#545454"/>
      <path id="Path_980" data-name="Path 980" d="M.293,364.929H9.706a.293.293,0,1,0,0-.586H9.413v-.586h.293a.293.293,0,1,0,0-.586H9.413v-.879A.293.293,0,0,0,9.12,362H7.343a.293.293,0,0,0-.293.293v.879H6.757a.293.293,0,1,0,0,.586H7.05v.586H5.878v-1.237a2.674,2.674,0,0,1-.586.065,2.591,2.591,0,0,1-.586-.07v1.241H2.949v-1.237a2.675,2.675,0,0,1-1.172,0v1.237H.293a.293.293,0,1,0,0,.586Zm7.343-1.172H8.827v.586H7.636Zm0,0" transform="translate(0 -354.931)" fill="#545454"/>
      <path id="Path_981" data-name="Path 981" d="M215.039,2.99A3.456,3.456,0,0,1,215.684,5a3.407,3.407,0,0,1-.973,2.411,2.108,2.108,0,0,0,.973.245A2.524,2.524,0,0,0,218.027,5a2.824,2.824,0,0,0-.687-1.87,3.307,3.307,0,0,0,.1-.767c0-1.292-.788-2.363-1.758-2.363a1.507,1.507,0,0,0-1.1.533,3.475,3.475,0,0,1,.457,2.458Zm0,0" transform="translate(-210.392)" fill="#545454"/>
    </g>
  </g>
</svg>
