<svg xmlns="http://www.w3.org/2000/svg" width="17.428" height="17.428" viewBox="0 0 17.428 17.428">
  <g id="restaurant-cutlery-circular-symbol-of-a-spoon-and-a-fork-in-a-circle" transform="translate(-0.001)">
    <g id="Group_2952" data-name="Group 2952">
      <path id="Path_971" data-name="Path 971" d="M37.175,29.813a7.344,7.344,0,0,0-3.163,13.975l.23-4.445s-.433-.142-.527-.188a3.3,3.3,0,0,1-1.584-3.139c0-1.686,1.307-3.138,2.571-3.15h0c1.264.012,2.572,1.464,2.572,3.15a3.3,3.3,0,0,1-1.583,3.139l-.532.194.257,4.942a7.2,7.2,0,0,0,4.093-.165l.228-4.4a2.361,2.361,0,0,1-1.432-.993c-.4-.6.306-5.862.306-5.862h.457v4.943h.454V32.866h.5v4.943h.452V32.866h.515v4.943h.454V32.866h.351s.7,5.267.305,5.862a2.368,2.368,0,0,1-1.417.99l-.02.007.2,3.788a7.345,7.345,0,0,0-3.685-13.7Z" transform="translate(-28.461 -28.448)" fill="#545454"/>
      <path id="Path_972" data-name="Path 972" d="M91.371,142.112a2.111,2.111,0,0,1,.063-.211.1.1,0,0,0-.053-.107.088.088,0,0,0-.115.025l-.123.2a2.129,2.129,0,0,0-.207.467,3.864,3.864,0,0,0-.142.678,3.235,3.235,0,0,0-.01.393,1.86,1.86,0,0,0,.075.417,2.7,2.7,0,0,0,.657,1.2,2.263,2.263,0,0,0,.351.285l.033.023.059.037a.673.673,0,0,0,.141.058.085.085,0,0,0,.1-.04.086.086,0,0,0-.028-.1.919.919,0,0,1-.1-.114,2.075,2.075,0,0,1-.135-.185l-.118-.169a5.948,5.948,0,0,1-.464-1.141,1.519,1.519,0,0,1-.065-.314,3.208,3.208,0,0,1-.018-.336,4.436,4.436,0,0,1,.028-.624A2.434,2.434,0,0,1,91.371,142.112Z" transform="translate(-86.626 -135.293)" fill="#545454"/>
      <path id="Path_973" data-name="Path 973" d="M8.715,0a8.714,8.714,0,1,0,8.714,8.714A8.725,8.725,0,0,0,8.715,0Zm0,16.778a8.064,8.064,0,1,1,8.065-8.064A8.074,8.074,0,0,1,8.715,16.778Z" fill="#545454"/>
    </g>
  </g>
</svg>
