<svg xmlns="http://www.w3.org/2000/svg" width="32.129" height="32.129" viewBox="0 0 32.129 32.129">
  <g id="Group_3357" data-name="Group 3357" transform="translate(-288.031 -2039.928)">
    <g id="Group_2958" data-name="Group 2958" transform="translate(288.03 2039.928)">
      <g id="baseline-person_pin-24px" transform="translate(0 0)">
        <path id="Path_110" data-name="Path 110" d="M15.049,2a12.042,12.042,0,0,0-3.092,23.682l3.092,3.092,3.092-3.092A12.042,12.042,0,0,0,15.049,2Z" transform="translate(1.016 0.677)" fill="#189655"/>
        <path id="Path_111" data-name="Path 111" d="M0,0H32.13V32.129H0Z" fill="none"/>
      </g>
    </g>
    <g id="restaurant-cutlery-circular-symbol-of-a-spoon-and-a-fork-in-a-circle" transform="translate(295.464 2045.704)">
      <g id="Group_2952" data-name="Group 2952">
        <path id="Path_973" data-name="Path 973" d="M8.715,0a8.714,8.714,0,1,0,8.714,8.714A8.725,8.725,0,0,0,8.715,0Zm0,16.778a8.064,8.064,0,1,1,8.065-8.064A8.074,8.074,0,0,1,8.715,16.778Z" fill="#fff"/>
      </g>
    </g>
    <g id="three-buildings" transform="translate(299 2004.064)">
      <g id="Group_2959" data-name="Group 2959" transform="translate(0 46.366)">
        <path id="Path_976" data-name="Path 976" d="M131.012,54.956h1.876V53.037h1.128v1.919h1.876v-8.59h-4.88Zm2.783-7.578h1.128v1.128h-1.128Zm0,1.813h1.128v1.128h-1.128Zm0,1.812h1.128v1.128h-1.128Zm-1.812-3.625h1.128v1.128h-1.128Zm0,1.813h1.128v1.128h-1.128Zm0,1.812h1.128v1.128h-1.128Z" transform="translate(-128.141 -46.366)" fill="#fff"/>
        <path id="Path_977" data-name="Path 977" d="M373.719,81.482v6.074h.725V89.3h1.708V81.482Zm1.55,5.249h-1.027V85.7h1.027v1.027Zm0-1.65h-1.027V84.054h1.027v1.027Zm0-1.65h-1.027V82.4h1.027V83.43Z" transform="translate(-365.53 -80.713)" fill="#fff"/>
        <path id="Path_978" data-name="Path 978" d="M0,89.3H1.708V87.556h.725V81.482H0Zm.883-6.9H1.91V83.43H.883Zm0,1.65H1.91v1.027H.883Zm0,1.65H1.91v1.027H.883Z" transform="translate(0 -80.713)" fill="#fff"/>
      </g>
    </g>
  </g>
</svg>
