<svg xmlns="http://www.w3.org/2000/svg" width="32.129" height="32.129" viewBox="0 0 32.129 32.129">
  <g id="Group_3359" data-name="Group 3359" transform="translate(-474.031 -1872.928)">
    <g id="Group_2966" data-name="Group 2966" transform="translate(474.03 1872.928)">
      <g id="baseline-person_pin-24px" transform="translate(0 0)">
        <path id="Path_110" data-name="Path 110" d="M15.049,2a12.042,12.042,0,0,0-3.092,23.682l3.092,3.092,3.092-3.092A12.042,12.042,0,0,0,15.049,2Z" transform="translate(1.016 0.677)" fill="#189655"/>
        <path id="Path_111" data-name="Path 111" d="M0,0H32.13V32.129H0Z" fill="none"/>
      </g>
    </g>
    <g id="restaurant-cutlery-circular-symbol-of-a-spoon-and-a-fork-in-a-circle" transform="translate(481.464 1878.704)">
      <g id="Group_2952" data-name="Group 2952">
        <path id="Path_973" data-name="Path 973" d="M8.715,0a8.714,8.714,0,1,0,8.714,8.714A8.725,8.725,0,0,0,8.715,0Zm0,16.778a8.064,8.064,0,1,1,8.065-8.064A8.074,8.074,0,0,1,8.715,16.778Z" fill="#fff"/>
      </g>
    </g>
    <g id="Group_2967" data-name="Group 2967" transform="translate(-502 1590)">
      <path id="Union_10" data-name="Union 10" d="M0,3.526a3.527,3.527,0,0,1,7.054,0c0,2.646-3.526,6.55-3.526,6.55S0,6.172,0,3.526Z" transform="translate(989 293.058)" fill="#fff"/>
      <circle id="Ellipse_692" data-name="Ellipse 692" cx="1.504" cy="1.504" r="1.504" transform="translate(991 295.27)" fill="#189655"/>
    </g>
  </g>
</svg>
