<svg xmlns="http://www.w3.org/2000/svg" width="32.129" height="32.129" viewBox="0 0 32.129 32.129">
  <g id="Group_3354" data-name="Group 3354" transform="translate(-596.031 -2017.928)">
    <g id="Group_2961" data-name="Group 2961" transform="translate(596.03 2017.928)">
      <g id="baseline-person_pin-24px" transform="translate(0 0)">
        <path id="Path_110" data-name="Path 110" d="M15.049,2a12.042,12.042,0,0,0-3.092,23.682l3.092,3.092,3.092-3.092A12.042,12.042,0,0,0,15.049,2Z" transform="translate(1.016 0.677)" fill="#189655"/>
        <path id="Path_111" data-name="Path 111" d="M0,0H32.13V32.129H0Z" fill="none"/>
      </g>
    </g>
    <g id="restaurant-cutlery-circular-symbol-of-a-spoon-and-a-fork-in-a-circle" transform="translate(603.464 2023.704)">
      <g id="Group_2952" data-name="Group 2952">
        <path id="Path_973" data-name="Path 973" d="M8.715,0a8.714,8.714,0,1,0,8.714,8.714A8.725,8.725,0,0,0,8.715,0Zm0,16.778a8.064,8.064,0,1,1,8.065-8.064A8.074,8.074,0,0,1,8.715,16.778Z" fill="#fff"/>
      </g>
    </g>
    <g id="parked-car" transform="translate(606 1990.202)">
      <path id="Path_982" data-name="Path 982" d="M8.67,83.889a.454.454,0,0,0-.12.017l-.456.126L7.62,82.877a1.034,1.034,0,0,0-.885-.593H2.3a1.034,1.034,0,0,0-.884.593L.943,84.03l-.451-.124a.454.454,0,0,0-.12-.017A.37.37,0,0,0,0,84.281v.269a.481.481,0,0,0,.481.481H.532l-.076.186a3.6,3.6,0,0,0-.226,1.147v2.293a.481.481,0,0,0,.481.481h.628a.481.481,0,0,0,.481-.481v-.573h5.4v.573a.481.481,0,0,0,.481.481h.628a.481.481,0,0,0,.481-.481V86.363a3.6,3.6,0,0,0-.226-1.147L8.5,85.03h.058a.481.481,0,0,0,.481-.481v-.269A.37.37,0,0,0,8.67,83.889Zm-7.382.88L2,83.023a.621.621,0,0,1,.53-.356H6.5a.621.621,0,0,1,.53.356l.717,1.746a.24.24,0,0,1-.238.356H1.526A.24.24,0,0,1,1.287,84.769Zm1.6,2.208a.193.193,0,0,1-.192.192H1.334a.193.193,0,0,1-.192-.192v-.653a.193.193,0,0,1,.192-.192H2.7a.193.193,0,0,1,.192.192Zm4.994,0a.193.193,0,0,1-.192.192H6.327a.193.193,0,0,1-.192-.192v-.653a.193.193,0,0,1,.192-.192H7.689a.193.193,0,0,1,.192.192Z" transform="translate(0 -42.788)" fill="#fff"/>
      <g id="Group_2962" data-name="Group 2962" transform="translate(8.747 37.486)">
        <path id="Path_983" data-name="Path 983" d="M197.869,37.486h-2.276a.6.6,0,0,0-.6.6v2.276a.6.6,0,0,0,.6.6h.914v5.108a.224.224,0,1,0,.449,0V40.964h.914a.6.6,0,0,0,.6-.6V38.087A.6.6,0,0,0,197.869,37.486Zm-.515,1.887a.833.833,0,0,1-.573.178h-.33a.072.072,0,0,0-.072.072v.556a.11.11,0,0,1-.11.109h-.25a.11.11,0,0,1-.109-.109V38.272a.11.11,0,0,1,.109-.11h.629a.962.962,0,0,1,.7.171.648.648,0,0,1,.2.521A.665.665,0,0,1,197.354,39.373Z" transform="translate(-194.992 -37.486)" fill="#fff"/>
        <path id="Path_984" data-name="Path 984" d="M226.531,61.35a.552.552,0,0,0-.32-.069h-.226a.072.072,0,0,0-.072.072v.457a.072.072,0,0,0,.072.072h.135c.05,0,.13,0,.179-.008a.613.613,0,0,0,.231-.061.343.343,0,0,0,0-.462Z" transform="translate(-224.526 -60.214)" fill="#fff"/>
      </g>
    </g>
  </g>
</svg>
