<svg xmlns="http://www.w3.org/2000/svg" width="32.129" height="32.129" viewBox="0 0 32.129 32.129">
  <g id="Group_3358" data-name="Group 3358" transform="translate(-344.031 -1964.928)">
    <g id="Group_2965" data-name="Group 2965" transform="translate(344.03 1964.928)">
      <g id="baseline-person_pin-24px" transform="translate(0 0)">
        <path id="Path_110" data-name="Path 110" d="M15.049,2a12.042,12.042,0,0,0-3.092,23.682l3.092,3.092,3.092-3.092A12.042,12.042,0,0,0,15.049,2Z" transform="translate(1.016 0.677)" fill="#189655"/>
        <path id="Path_111" data-name="Path 111" d="M0,0H32.13V32.129H0Z" fill="none"/>
      </g>
    </g>
    <g id="restaurant-cutlery-circular-symbol-of-a-spoon-and-a-fork-in-a-circle" transform="translate(351.464 1970.704)">
      <g id="Group_2952" data-name="Group 2952">
        <path id="Path_973" data-name="Path 973" d="M8.715,0a8.714,8.714,0,1,0,8.714,8.714A8.725,8.725,0,0,0,8.715,0Zm0,16.778a8.064,8.064,0,1,1,8.065-8.064A8.074,8.074,0,0,1,8.715,16.778Z" fill="#fff"/>
      </g>
    </g>
    <g id="baseline-account_balance-24px" transform="translate(354 1973.005)">
      <path id="Path_989" data-name="Path 989" d="M0,0H12V12H0Z" fill="none"/>
      <path id="Path_990" data-name="Path 990" d="M3,5.5V9H4.5V5.5Zm3,0V9H7.5V5.5Zm-4,6h9.5V10H2Zm7-6V9h1.5V5.5ZM6.748,1,2,3.5v1h9.5v-1Z" transform="translate(-1 -0.5)" fill="#fff"/>
    </g>
  </g>
</svg>
